PathFileType	4	(X/Y/Z)	T:\Spectrum_Optical_Capture\Spectrum_Demo_10_05_01_TRUECOMBAT\07_Smooth_Trc\TC_Jump_1.trc
DataRate	CameraRate	NumFrames	NumMarkers	Units	OrigDataRate	OrigDataStartFrame	OrigNumFrames
60.0	60.0	       5	46	mm	60.0	799	       913
Frame#	Time	HeadTop			ForeHead			LFrontHead			RFrontHead			TopSpine			Sternum			Scapula			LFShoulder			LShoulder			LBicep			LOuterElbow			LHand			LWristPinky			LWristThumb			RFShoulder			RShoulder			RBicep			ROuterElbow			RHand			RWristPinky			RWristThumb			MiddleBack			LowerBack			Root			Pelvis			LBackWaist			RBackWaist			LFrontWaist			RFrontWaist			Bellymarker			LThigh			LOuterKnee			LAnkle			LHeel			LOuterMeta			LToe			RThigh			ROuterKnee			RAnkle			RHeel			ROuterMeta			RToe			Floor1			Floor2			Floor3			Floor4			
		X1	Y1	Z1	X2	Y2	Z2	X3	Y3	Z3	X4	Y4	Z4	X5	Y5	Z5	X6	Y6	Z6	X7	Y7	Z7	X8	Y8	Z8	X9	Y9	Z9	X10	Y10	Z10	X11	Y11	Z11	X12	Y12	Z12	X13	Y13	Z13	X14	Y14	Z14	X15	Y15	Z15	X16	Y16	Z16	X17	Y17	Z17	X18	Y18	Z18	X19	Y19	Z19	X20	Y20	Z20	X21	Y21	Z21	X22	Y22	Z22	X23	Y23	Z23	X24	Y24	Z24	X25	Y25	Z25	X26	Y26	Z26	X27	Y27	Z27	X28	Y28	Z28	X29	Y29	Z29	X30	Y30	Z30	X31	Y31	Z31	X32	Y32	Z32	X33	Y33	Z33	X34	Y34	Z34	X35	Y35	Z35	X36	Y36	Z36	X37	Y37	Z37	X38	Y38	Z38	X39	Y39	Z39	X40	Y40	Z40	X41	Y41	Z41	X42	Y42	Z42	X43	Y43	Z43	X44	Y44	Z44	X45	Y45	Z45	X46	Y46	Z46	

799	13.300	-2205.52563	1565.39282	-2187.33179	-2259.81885	1425.24658	-2269.77441	-2294.46948	1433.08899	-2153.82275	-2143.90039	1435.25415	-2265.01074	-2068.75415	1278.93262	-2035.80835	-2237.49414	1064.60645	-2214.82520	-1952.51294	1151.65698	-2083.25244	-2270.63696	1181.00403	-2134.97070	-2270.52295	1273.70215	-1969.65173	-2359.87256	1090.15674	-1902.61853	-2328.58057	960.01379	-1874.10437	-2541.76440	999.71027	-2008.99670	-2612.33374	956.58820	-2066.11450	-2610.37769	1048.34363	-2113.23535	-2159.28296	1173.76550	-2247.23120	-2013.04602	1256.70313	-2248.09570	-1914.80115	1089.99036	-2244.63916	-1916.04846	925.56415	-2235.15039	-2033.22534	809.45239	-2420.25879	-2070.58374	727.92786	-2440.89355	-2104.95703	760.80353	-2523.26440	-2051.04883	1191.07617	-2009.36145	-2052.18701	1062.02515	-2000.44104	-2062.19727	950.55029	-1994.71655	-2197.95581	979.24194	-1935.87561	-2191.80420	867.53271	-1924.75562	-1961.84424	855.25165	-2094.52246	-2292.78052	858.22583	-2032.24841	-2021.08289	851.19855	-2227.32373	-2222.18530	861.55396	-2219.81714	-2316.19360	609.61700	-2008.93701	-2352.49561	465.22903	-2099.04639	-2277.55225	99.16471	-2045.41809	-2169.73828	46.38909	-1999.85986	-2302.43457	15.84966	-2080.30493	-2300.41187	25.21221	-2213.34839	-2022.89478	625.97894	-2291.58545	-2030.84631	470.56491	-2299.00977	-1928.57336	356.64987	-2056.89600	-1955.91492	393.03583	-1943.08398	-1867.23401	271.96463	-1978.56995	-1922.23279	167.33611	-1985.77075	4200.73584	32.82586	-4240.98730	-3733.56079	-12.74245	-4192.92920	-3782.65991	-16.12042	4948.32178	4163.39697	21.10449	4906.83105	
800	13.317	-2239.63208	1572.86951	-2225.46606	-2292.26489	1431.46533	-2307.22266	-2327.13989	1439.75073	-2190.98340	-2175.93433	1442.47791	-2301.67822	-2101.16675	1289.06934	-2067.73804	-2264.20020	1073.76709	-2250.94214	-1983.90479	1161.96045	-2109.98340	-2298.41577	1190.61243	-2174.59937	-2306.39087	1284.36072	-2010.70361	-2405.97168	1098.32654	-1968.87292	-2382.32983	965.76300	-1945.01294	-2573.77222	1030.98425	-2099.78906	-2638.49634	998.65857	-2168.32617	-2626.76221	1095.10254	-2203.84790	-2182.89600	1181.86902	-2281.99951	-2035.98315	1264.40857	-2278.55859	-1932.34607	1101.99695	-2259.85474	-1924.43384	940.77258	-2235.38867	-2008.76477	781.07086	-2410.12183	-2032.90356	691.48334	-2418.99072	-2061.88647	704.89063	-2510.82275	-2084.84741	1201.34741	-2040.61157	-2084.50342	1072.30347	-2032.02295	-2090.47583	959.36237	-2028.61536	-2228.36108	988.35718	-1970.52185	-2216.87085	875.18274	-1958.21155	-1991.05188	865.28955	-2133.97754	-2319.79541	864.83411	-2064.67529	-2052.32837	861.74646	-2264.31934	-2253.00757	870.18030	-2254.04272	-2334.09619	611.09741	-2032.28918	-2365.82178	461.39069	-2114.11914	-2278.56006	98.60529	-2046.91479	-2170.13989	46.90622	-2000.32288	-2302.77246	16.03926	-2080.52783	-2300.01636	25.48446	-2213.35083	-2072.57568	646.35455	-2339.67017	-2098.28638	490.11511	-2355.09497	-1999.81177	311.07584	-2136.05884	-2015.08533	326.61786	-2013.37915	-1950.59265	203.41074	-2083.70508	-2025.19470	114.78357	-2111.19360	4200.59375	32.77819	-4240.85352	-3733.53662	-12.75832	-4192.84521	-3782.57788	-16.11421	4948.20215	4163.35645	21.17241	4906.64209	
801	13.333	-2273.10815	1582.53296	-2264.36816	-2323.74512	1439.92383	-2345.28198	-2359.22852	1448.59204	-2228.77954	-2207.29346	1451.94165	-2339.08691	-2133.11597	1301.25342	-2100.17993	-2290.63135	1085.98596	-2287.53784	-2014.97949	1173.91687	-2137.11646	-2325.42358	1203.40125	-2214.87817	-2340.33936	1298.60779	-2052.90991	-2448.50293	1114.39893	-2034.63391	-2433.18408	980.60364	-2013.89417	-2598.75342	1069.89990	-2184.07153	-2656.24585	1048.50989	-2261.96045	-2636.06543	1147.14465	-2285.51758	-2205.70581	1192.88782	-2316.96875	-2058.23853	1275.20056	-2308.46387	-1949.94836	1119.34790	-2274.44849	-1932.59521	963.49194	-2237.26636	-1984.47974	773.41852	-2396.44312	-1996.83423	679.97839	-2394.59619	-2018.97351	677.33099	-2489.89917	-2118.64893	1213.46777	-2072.57153	-2116.96851	1084.74951	-2064.20459	-2119.17407	970.27789	-2064.04443	-2259.18433	1000.22705	-2006.36169	-2242.77222	885.08234	-1993.33911	-2021.35950	878.06152	-2175.46777	-2347.74243	874.34314	-2097.14697	-2085.36572	874.46832	-2303.75146	-2285.77466	882.24420	-2289.61621	-2351.94043	616.05627	-2056.05054	-2376.61060	460.78140	-2126.95923	-2278.85278	99.24017	-2048.23267	-2170.07520	48.14135	-2001.06946	-2302.95337	15.96063	-2081.08276	-2299.98486	24.89294	-2214.02148	-2120.63477	670.35944	-2385.55713	-2158.68506	513.56677	-2405.59155	-2073.55127	271.68622	-2220.83691	-2081.48315	262.10913	-2094.88770	-2039.66150	148.98524	-2196.76929	-2130.41357	81.88599	-2240.10425	4200.43213	32.73626	-4240.70996	-3733.53394	-12.75590	-4192.72217	-3782.41040	-16.08080	4947.96143	4163.43457	21.21994	4906.55957	
802	13.350	-2305.32080	1593.77966	-2303.49731	-2353.92212	1450.35095	-2383.51172	-2390.19043	1459.11633	-2267.08276	-2237.74683	1463.35461	-2377.14795	-2164.73047	1314.87500	-2133.85498	-2316.89185	1100.90601	-2324.92456	-2045.62476	1187.38855	-2165.00854	-2351.63257	1218.93237	-2255.92334	-2372.28833	1315.68701	-2096.29688	-2487.64795	1136.46179	-2098.44580	-2480.77563	1002.02539	-2080.36328	-2618.48291	1113.04333	-2260.66919	-2668.42896	1102.64478	-2345.75195	-2640.56909	1200.96619	-2357.49268	-2227.85791	1206.30701	-2352.31396	-2080.23145	1288.57410	-2338.14771	-1967.95923	1142.01294	-2288.67407	-1940.90930	993.03540	-2240.06274	-1963.61304	783.81006	-2382.40527	-1966.97302	689.45044	-2371.64722	-1981.22583	675.03632	-2466.85010	-2152.18286	1227.12744	-2105.52734	-2149.23633	1099.05054	-2097.43091	-2148.90137	983.47052	-2101.01587	-2290.66333	1014.55884	-2043.91077	-2270.21191	896.95355	-2030.41052	-2053.13916	893.06128	-2217.75659	-2376.88428	886.78101	-2130.71509	-2119.47021	889.38300	-2344.67285	-2319.62427	897.46893	-2326.50586	-2369.90723	623.96167	-2080.19873	-2385.21021	463.44696	-2138.22876	-2277.64307	101.85073	-2049.31738	-2168.70679	51.14055	-2002.91003	-2302.35303	16.03271	-2081.59741	-2300.75220	23.74212	-2214.73633	-2166.48608	695.51019	-2428.84937	-2211.01733	537.56964	-2451.20410	-2149.77148	240.39763	-2310.24902	-2156.71509	205.13554	-2186.66895	-2132.54956	111.89651	-2314.37354	-2234.06763	68.91774	-2368.61621	4200.34375	32.69548	-4240.68457	-3733.55151	-12.74913	-4192.59619	-3782.13281	-16.03161	4947.53857	4163.57568	21.30566	4906.59668	
803	13.367	-2335.67700	1605.57324	-2342.37256	-2382.73218	1461.99902	-2421.76489	-2419.52319	1470.45850	-2305.67163	-2266.98242	1475.86719	-2415.66089	-2196.06201	1329.06860	-2168.74292	-2342.78540	1117.80420	-2363.36768	-2076.19849	1201.86462	-2193.51270	-2376.76733	1236.30029	-2297.75269	-2402.30640	1334.49670	-2140.65454	-2523.98047	1162.25305	-2159.35938	-2525.18872	1027.51538	-2144.08252	-2634.88184	1157.15332	-2329.62598	-2677.31885	1157.17371	-2420.09473	-2642.60327	1253.35559	-2420.35107	-2249.12964	1221.31018	-2387.96729	-2102.19946	1304.06384	-2367.36157	-1986.83594	1169.77771	-2302.92651	-1950.27075	1028.79138	-2243.49683	-1948.21936	808.44757	-2370.44995	-1945.75183	714.77887	-2352.81934	-1951.73157	692.49823	-2446.52466	-2185.41284	1241.72681	-2139.27490	-2181.57495	1114.36890	-2131.81665	-2180.04688	998.38116	-2139.22656	-2323.43091	1030.55054	-2083.36597	-2299.68921	910.34290	-2069.28271	-2086.38721	909.15253	-2259.77051	-2407.37036	901.60028	-2166.90869	-2153.73730	905.98480	-2385.91260	-2353.53320	915.19824	-2364.82935	-2388.43286	634.23956	-2104.66357	-2392.96753	469.36578	-2149.02026	-2274.33081	107.52860	-2050.71387	-2165.09033	57.46634	-2007.33069	-2300.13281	17.25220	-2081.50879	-2302.96826	22.38803	-2214.21045	-2209.40552	718.81879	-2469.56152	-2255.48608	558.99463	-2492.99829	-2227.41943	218.26418	-2402.38647	-2239.35205	160.48364	-2285.86768	-2226.86353	91.96754	-2432.14771	-2333.62646	72.92468	-2492.85132	4200.37451	32.67009	-4240.80664	-3733.61450	-12.73288	-4192.54004	-3781.75464	-15.98157	4946.95508	4163.68945	21.45685	4906.76416	
